<svg xmlns="http://www.w3.org/2000/svg" viewBox="0 0 32 32">
  <defs>
    <linearGradient id="g" x1="0" y1="0" x2="1" y2="1">
      <stop offset="0" stop-color="#32d583"/>
      <stop offset="1" stop-color="#027a48"/>
    </linearGradient>
  </defs>
  <rect width="32" height="32" rx="8" fill="url(#g)"/>
  <path fill="#fff" d="M16 24c-.6 0-1-.4-1-1v-6.2c-2.7-.3-4.8-2.6-4.8-5.4 0-.5.4-1 1-1 2.6 0 4.8 1.9 5.3 4.4.4-1 1.1-1.9 2-2.5-.2-.4-.3-.8-.3-1.3 0-1.9 1.6-3.5 3.6-3.5.5 0 1 .4 1 1 0 1.9-1.6 3.5-3.6 3.5h-.1c-1 .7-1.6 1.9-1.6 3.2V23c0 .6-.4 1-1 1z"/>
</svg>
